<?xml version="1.0" standalone="no"?><!DOCTYPE svg PUBLIC "-//W3C//DTD SVG 1.1//EN" "http://www.w3.org/Graphics/SVG/1.1/DTD/svg11.dtd"><svg class="icon" width="200px" height="181.88px" viewBox="0 0 1126 1024" version="1.1" xmlns="http://www.w3.org/2000/svg"><path d="M904.3968 585.0624l-362.0352-361.984-362.0352 361.984 325.7856 325.8368a51.2 51.2 0 0 0 72.448 0l325.8368-325.8368z" fill="#476FFF" fill-opacity=".5" /><path d="M343.9616 96.256L54.272 385.8944a76.8 76.8 0 0 0 0 108.5952l434.432 434.432a76.8 76.8 0 0 0 108.5952 0l289.6384-289.5872a76.8 76.8 0 0 0 0-108.6464L452.608 96.256a76.8 76.8 0 0 0-108.5952 0z m-253.44 325.8368l289.6384-289.6384a25.6 25.6 0 0 1 36.1984 0l434.432 434.432a25.6 25.6 0 0 1 0 36.2496l-289.6384 289.5872a25.6 25.6 0 0 1-36.1984 0L90.5216 458.2912a25.6 25.6 0 0 1 0-36.1984z" fill="#476FFF" /><path d="M942.6432 297.472a25.6 25.6 0 0 0-39.168 32.7168l2.9696 3.5328 88.4224 88.4224a25.6 25.6 0 0 1 2.9696 32.6656l-2.9696 3.584-434.432 434.432a25.6 25.6 0 0 1-32.6656 2.9696l-3.5328-2.9696-289.6384-289.6384a25.6 25.6 0 0 1-2.9696-32.6656l2.9696-3.584 434.432-434.432a25.6 25.6 0 0 1 32.6656-2.9184l3.584 2.9184 79.8208 79.872a25.6 25.6 0 0 0 39.168-32.6656l-2.9696-3.584-79.872-79.8208a76.8 76.8 0 0 0-103.1168-4.9664l-5.4784 4.9664-434.432 434.4832a76.8 76.8 0 0 0-4.9664 103.1168l4.9664 5.4784 289.6384 289.6384a76.8 76.8 0 0 0 103.1168 4.9664l5.4784-4.9664 434.4832-434.4832a76.8 76.8 0 0 0 4.9664-103.1168l-4.9664-5.4784-88.4736-88.4224z" fill="#476FFF" /><path d="M542.3616 186.88l398.2336 398.1824-343.9616 343.9616a76.8 76.8 0 0 1-108.5952 0l-343.9616-343.9616 398.2848-398.2336z m-307.712 416.256l289.5872 289.6896 3.584 2.9696a25.6 25.6 0 0 0 32.6144-2.9696l289.6896-289.6384a25.6 25.6 0 0 0 0-36.2496l-307.712-307.712-307.712 307.712a25.6 25.6 0 0 0 0 36.2496z" fill="#476FFF" /></svg>