<?xml version="1.0" standalone="no"?><!DOCTYPE svg PUBLIC "-//W3C//DTD SVG 1.1//EN" "http://www.w3.org/Graphics/SVG/1.1/DTD/svg11.dtd"><svg class="icon" width="200px" height="200.00px" viewBox="0 0 1024 1024" version="1.1" xmlns="http://www.w3.org/2000/svg"><path d="M387.168 691.328s-21.216-48.8 3.584-83.264c24.96-34.688 53.888-69.6 119.584-152.128 6.368-6.944 15.136-28.096 17.12-40.672 1.184-7.488 0.896-15.552-0.16-25.44a176.992 176.992 0 0 0-3.2-17.92c-21.248-60.192-16.64-51.168-144.128-354.72C161.184 75.424 0 274.88 0 512c0 282.784 229.216 512 512 512 3.776 0 7.52-0.064 11.264-0.128l-136.096-332.544z" fill="#21B3FF" /><path d="M512 0c-3.584 0-7.136 0.032-10.688 0.128l151.424 373.216s24.96 49.088-2.688 94.016c-23.456 38.08-92.608 113.536-124.288 162.176-9.216 14.08-13.76 46.88-5.44 71.584 19.36 57.536 120.096 297.504 123.552 305.728C862.72 948.672 1024 749.184 1024 512c0-282.784-229.216-512-512-512z" fill="#1691FF" /></svg>